<?xml version="1.0" encoding="UTF-8"?>
<svg width="752pt" height="752pt" version="1.1" viewBox="0 0 752 752" xmlns="http://www.w3.org/2000/svg">
 <path d="m502.59 263.05h-14.207v-60.145c0-0.625-0.25-1.2305-0.69531-1.6719-0.44141-0.44531-1.0469-0.69531-1.6719-0.69531h-205.35c-8.9141 0.011719-17.457 3.5586-23.762 9.8633-6.3008 6.3008-9.8477 14.848-9.8594 23.762v275.1c0 23.254 20.887 42.195 46.504 42.195l209.04 0.003906c0.62891 0 1.2305-0.25 1.6758-0.69531 0.44141-0.44531 0.69141-1.0469 0.69141-1.6758v-283.67c0-0.62891-0.25-1.2305-0.69141-1.6758-0.44531-0.44531-1.0469-0.69531-1.6758-0.69531zm-221.92-57.773h202.98v57.777l-27.133-0.003907v-29.125c0-0.625-0.25-1.2305-0.69531-1.6719-0.44531-0.44531-1.0469-0.69531-1.6758-0.69531h-159.93c-1.3086 0-2.3672 1.0625-2.3672 2.3672 0 1.3086 1.0586 2.3711 2.3672 2.3711h157.56v26.52h-171.11c-10.32 0-19.855-5.5078-25.016-14.445s-5.1602-19.949 0-28.887c5.1602-8.9414 14.695-14.445 25.016-14.445zm219.5 341.45-206.62-0.003907c-23.016 0-41.77-16.812-41.77-37.461v-258c6.0352 10.223 17.016 16.504 28.887 16.527h219.55zm-90.594-201.51c-7.2656-0.38672-14.457 1.5859-20.512 5.6211-6.0508 4.0391-10.633 9.9219-13.066 16.777-2.4297-6.8672-7.0195-12.766-13.078-16.809-6.0625-4.0469-13.27-6.0234-20.543-5.6367-19.844 0-35.992 18.941-35.992 42.621 0 44.895 65.688 79.797 68.48 81.266l1.0898 0.56641 1.0898-0.56641c2.793-1.4688 68.48-36.371 68.48-81.266 0.042968-23.488-16.105-42.574-35.949-42.574zm-33.578 119.01c-8.6211-4.7344-64.832-37.461-64.832-76.484 0-20.836 14.207-37.887 31.258-37.887 18.941 0 31.258 12.691 31.258 32.441h4.7344c0-19.465 12.312-32.441 31.258-32.441 17.238 0 31.258 16.953 31.258 37.887-0.097656 39.023-56.312 71.699-64.934 76.484z" fill="#f9f3ed"/>
</svg>
